#Comment line ignore any data following # character 
#Hierarchical Translation and Rotation (.htr) file 
[Header]	
#Header keywords are followed by a single value 
FileType HTR		#Single word string
DataType HTRS		#Translation followed by rotation and scale data
FileVersion 1		#integer
NumSegments 84		#integer
NumFrames 2		#integer
DataFrameRate 30		#integer, data frame rate in this file
EulerRotationOrder ZYX
CalibrationUnits mm
RotationUnits Degrees
GlobalAxisofGravity Y
BoneLengthAxis Y
ScaleFactor 1.00
[SegmentNames&Hierarchy]
#CHILD	PARENT
MASTER GLOBAL
root MASTER
chest root
L_mid_tent01 root
R_mid_tent01 root
spine01 root
Bip01_Neck chest
L_humerus chest
R_humerus chest
weapon_bone chest
Bip01_Head Bip01_Neck
eye_left_bone Bip01_Head
eye_right_bone Bip01_Head
L_forearm L_humerus
L_front_hand L_forearm
L_weapon_bone L_forearm
L_front_hand01_01 L_front_hand
L_front_hand02_01 L_front_hand
L_front_hand03_01 L_front_hand
L_front_hand01_02 L_front_hand01_01
L_front_hand02_02 L_front_hand02_01
L_front_hand03_02 L_front_hand03_01
R_forearm R_humerus
R_front_hand R_forearm
R_weapon_bone R_forearm
R_front_hand01_01 R_front_hand
R_front_hand02_01 R_front_hand
R_front_hand03_01 R_front_hand
R_front_hand01_02 R_front_hand01_01
R_front_hand02_02 R_front_hand02_01
R_front_hand03_02 R_front_hand03_01
null_rope01_connect L_mid_tent01
Rope1_Seg01 null_rope01_connect
Rope1_Seg02 Rope1_Seg01
Rope1_Seg03 Rope1_Seg02
Rope1_Seg04 Rope1_Seg03
Rope1_Seg05 Rope1_Seg04
Rope1_Seg06 Rope1_Seg05
Rope1_Seg07 Rope1_Seg06
Rope1_Seg09 Rope1_Seg07
L_mid_hand01 Rope1_Seg09
L_mid_hand02 Rope1_Seg09
L_mid_hand03 Rope1_Seg09
null_rope02_connect R_mid_tent01
Rope2_Seg01 null_rope02_connect
Rope2_Seg02 Rope2_Seg01
Rope2_Seg03 Rope2_Seg02
Rope2_Seg04 Rope2_Seg03
Rope2_Seg05 Rope2_Seg04
Rope2_Seg06 Rope2_Seg05
Rope2_Seg07 Rope2_Seg06
Rope2_Seg09 Rope2_Seg07
R_mid_hand01 Rope2_Seg09
R_mid_hand02 Rope2_Seg09
R_mid_hand03 Rope2_Seg09
spine02 spine01
spine03 spine02
pelvis spine03
null_rope03_connect pelvis
null_rope04_connect pelvis
Rope3_Seg01 null_rope03_connect
Rope3_Seg02 Rope3_Seg01
Rope3_Seg03 Rope3_Seg02
Rope3_Seg04 Rope3_Seg03
Rope3_Seg05 Rope3_Seg04
Rope3_Seg06 Rope3_Seg05
Rope3_Seg07 Rope3_Seg06
Rope3_Seg08 Rope3_Seg07
Rope3_Seg09 Rope3_Seg08
R_rear_hand01 Rope3_Seg09
R_rear_hand02 Rope3_Seg09
R_rear_hand03 Rope3_Seg09
Rope4_Seg01 null_rope04_connect
Rope4_Seg02 Rope4_Seg01
Rope4_Seg03 Rope4_Seg02
Rope4_Seg04 Rope4_Seg03
Rope4_Seg05 Rope4_Seg04
Rope4_Seg06 Rope4_Seg05
Rope4_Seg07 Rope4_Seg06
Rope4_Seg08 Rope4_Seg07
Rope4_Seg09 Rope4_Seg08
L_rear_hand01 Rope4_Seg09
L_rear_hand02 Rope4_Seg09
L_rear_hand03 Rope4_Seg09
[BasePosition]
#SegmentName Tx, Ty, Tz, Rx, Ry, Rz, BoneLength
MASTER 0.000000 0.000000 0.000000 -90.000000 0.000000 0.000000 10.000000 
root 0.000000 0.000000 0.000000 0.000000 0.000000 0.000000 10.000000 
chest 0.000000 0.000000 0.000000 0.000000 0.000000 0.000000 10.000000 
L_mid_tent01 0.000000 0.000000 0.000000 0.000000 0.000000 0.000000 10.000000 
R_mid_tent01 0.000000 0.000000 0.000000 0.000000 0.000000 0.000000 10.000000 
spine01 0.000000 0.000000 0.000000 0.000000 0.000000 0.000000 10.000000 
Bip01_Neck 0.000000 0.000000 0.000000 0.000000 0.000000 0.000000 10.000000 
L_humerus 0.000000 0.000000 0.000000 0.000000 0.000000 0.000000 10.000000 
R_humerus 0.000000 0.000000 0.000000 0.000000 0.000000 0.000000 10.000000 
weapon_bone 0.000000 0.000000 0.000000 0.000000 0.000000 0.000000 10.000000 
Bip01_Head 0.000000 0.000000 0.000000 0.000000 0.000000 0.000000 10.000000 
eye_left_bone 0.000000 0.000000 0.000000 0.000000 0.000000 0.000000 10.000000 
eye_right_bone 0.000000 0.000000 0.000000 0.000000 0.000000 0.000000 10.000000 
L_forearm 0.000000 0.000000 0.000000 0.000000 0.000000 0.000000 10.000000 
L_front_hand 0.000000 0.000000 0.000000 0.000000 0.000000 0.000000 10.000000 
L_weapon_bone 0.000000 0.000000 0.000000 0.000000 0.000000 0.000000 10.000000 
L_front_hand01_01 0.000000 0.000000 0.000000 0.000000 0.000000 0.000000 10.000000 
L_front_hand02_01 0.000000 0.000000 0.000000 0.000000 0.000000 0.000000 10.000000 
L_front_hand03_01 0.000000 0.000000 0.000000 0.000000 0.000000 0.000000 10.000000 
L_front_hand01_02 0.000000 0.000000 0.000000 0.000000 0.000000 0.000000 10.000000 
L_front_hand02_02 0.000000 0.000000 0.000000 0.000000 0.000000 0.000000 10.000000 
L_front_hand03_02 0.000000 0.000000 0.000000 0.000000 0.000000 0.000000 10.000000 
R_forearm 0.000000 0.000000 0.000000 0.000000 0.000000 0.000000 10.000000 
R_front_hand 0.000000 0.000000 0.000000 0.000000 0.000000 0.000000 10.000000 
R_weapon_bone 0.000000 0.000000 0.000000 0.000000 0.000000 0.000000 10.000000 
R_front_hand01_01 0.000000 0.000000 0.000000 0.000000 0.000000 0.000000 10.000000 
R_front_hand02_01 0.000000 0.000000 0.000000 0.000000 0.000000 0.000000 10.000000 
R_front_hand03_01 0.000000 0.000000 0.000000 0.000000 0.000000 0.000000 10.000000 
R_front_hand01_02 0.000000 0.000000 0.000000 0.000000 0.000000 0.000000 10.000000 
R_front_hand02_02 0.000000 0.000000 0.000000 0.000000 0.000000 0.000000 10.000000 
R_front_hand03_02 0.000000 0.000000 0.000000 0.000000 0.000000 0.000000 10.000000 
null_rope01_connect 0.000000 0.000000 0.000000 0.000000 0.000000 0.000000 10.000000 
Rope1_Seg01 0.000000 0.000000 0.000000 0.000000 0.000000 0.000000 10.000000 
Rope1_Seg02 0.000000 0.000000 0.000000 0.000000 0.000000 0.000000 10.000000 
Rope1_Seg03 0.000000 0.000000 0.000000 0.000000 0.000000 0.000000 10.000000 
Rope1_Seg04 0.000000 0.000000 0.000000 0.000000 0.000000 0.000000 10.000000 
Rope1_Seg05 0.000000 0.000000 0.000000 0.000000 0.000000 0.000000 10.000000 
Rope1_Seg06 0.000000 0.000000 0.000000 0.000000 0.000000 0.000000 10.000000 
Rope1_Seg07 0.000000 0.000000 0.000000 0.000000 0.000000 0.000000 10.000000 
Rope1_Seg09 0.000000 0.000000 0.000000 0.000000 0.000000 0.000000 10.000000 
L_mid_hand01 0.000000 0.000000 0.000000 0.000000 0.000000 0.000000 10.000000 
L_mid_hand02 0.000000 0.000000 0.000000 0.000000 0.000000 0.000000 10.000000 
L_mid_hand03 0.000000 0.000000 0.000000 0.000000 0.000000 0.000000 10.000000 
null_rope02_connect 0.000000 0.000000 0.000000 0.000000 0.000000 0.000000 10.000000 
Rope2_Seg01 0.000000 0.000000 0.000000 0.000000 0.000000 0.000000 10.000000 
Rope2_Seg02 0.000000 0.000000 0.000000 0.000000 0.000000 0.000000 10.000000 
Rope2_Seg03 0.000000 0.000000 0.000000 0.000000 0.000000 0.000000 10.000000 
Rope2_Seg04 0.000000 0.000000 0.000000 0.000000 0.000000 0.000000 10.000000 
Rope2_Seg05 0.000000 0.000000 0.000000 0.000000 0.000000 0.000000 10.000000 
Rope2_Seg06 0.000000 0.000000 0.000000 0.000000 0.000000 0.000000 10.000000 
Rope2_Seg07 0.000000 0.000000 0.000000 0.000000 0.000000 0.000000 10.000000 
Rope2_Seg09 0.000000 0.000000 0.000000 0.000000 0.000000 0.000000 10.000000 
R_mid_hand01 0.000000 0.000000 0.000000 0.000000 0.000000 0.000000 10.000000 
R_mid_hand02 0.000000 0.000000 0.000000 0.000000 0.000000 0.000000 10.000000 
R_mid_hand03 0.000000 0.000000 0.000000 0.000000 0.000000 0.000000 10.000000 
spine02 0.000000 0.000000 0.000000 0.000000 0.000000 0.000000 10.000000 
spine03 0.000000 0.000000 0.000000 0.000000 0.000000 0.000000 10.000000 
pelvis 0.000000 0.000000 0.000000 0.000000 0.000000 0.000000 10.000000 
null_rope03_connect 0.000000 0.000000 0.000000 0.000000 0.000000 0.000000 10.000000 
null_rope04_connect 0.000000 0.000000 0.000000 0.000000 0.000000 0.000000 10.000000 
Rope3_Seg01 0.000000 0.000000 0.000000 0.000000 0.000000 0.000000 10.000000 
Rope3_Seg02 0.000000 0.000000 0.000000 0.000000 0.000000 0.000000 10.000000 
Rope3_Seg03 0.000000 0.000000 0.000000 0.000000 0.000000 0.000000 10.000000 
Rope3_Seg04 0.000000 0.000000 0.000000 0.000000 0.000000 0.000000 10.000000 
Rope3_Seg05 0.000000 0.000000 0.000000 0.000000 0.000000 0.000000 10.000000 
Rope3_Seg06 0.000000 0.000000 0.000000 0.000000 0.000000 0.000000 10.000000 
Rope3_Seg07 0.000000 0.000000 0.000000 0.000000 0.000000 0.000000 10.000000 
Rope3_Seg08 0.000000 0.000000 0.000000 0.000000 0.000000 0.000000 10.000000 
Rope3_Seg09 0.000000 0.000000 0.000000 0.000000 0.000000 0.000000 10.000000 
R_rear_hand01 0.000000 0.000000 0.000000 0.000000 0.000000 0.000000 10.000000 
R_rear_hand02 0.000000 0.000000 0.000000 0.000000 0.000000 0.000000 10.000000 
R_rear_hand03 0.000000 0.000000 0.000000 0.000000 0.000000 0.000000 10.000000 
Rope4_Seg01 0.000000 0.000000 0.000000 0.000000 0.000000 0.000000 10.000000 
Rope4_Seg02 0.000000 0.000000 0.000000 0.000000 0.000000 0.000000 10.000000 
Rope4_Seg03 0.000000 0.000000 0.000000 0.000000 0.000000 0.000000 10.000000 
Rope4_Seg04 0.000000 0.000000 0.000000 0.000000 0.000000 0.000000 10.000000 
Rope4_Seg05 0.000000 0.000000 0.000000 0.000000 0.000000 0.000000 10.000000 
Rope4_Seg06 0.000000 0.000000 0.000000 0.000000 0.000000 0.000000 10.000000 
Rope4_Seg07 0.000000 0.000000 0.000000 0.000000 0.000000 0.000000 10.000000 
Rope4_Seg08 0.000000 0.000000 0.000000 0.000000 0.000000 0.000000 10.000000 
Rope4_Seg09 0.000000 0.000000 0.000000 0.000000 0.000000 0.000000 10.000000 
L_rear_hand01 0.000000 0.000000 0.000000 0.000000 0.000000 0.000000 10.000000 
L_rear_hand02 0.000000 0.000000 0.000000 0.000000 0.000000 0.000000 10.000000 
L_rear_hand03 0.000000 0.000000 0.000000 0.000000 0.000000 0.000000 10.000000 
#Beginning of Data. Separated by tabs
#Fr	Tx	Ty	Tz	Rx	Ry	Rz	SF
[MASTER]
12 -1191.037354 -2029.770142 0.000000 0.000191 0.002339 -80.681366 2353.409668
13 -1245.757690 -2235.075684 0.000000 0.000220 0.002337 -79.235634 2558.803711
[root]
12 -62.822067 -4.425973 1003.756531 -98.721321 -8.116958 177.849075 1005.730225
13 -62.822239 -2.273336 1000.282776 -96.469055 -7.886476 178.494186 1002.256165
[chest]
12 -84.512650 -34.090519 0.000000 19.827877 -0.744610 156.387756 91.129311
13 -84.512650 -34.090519 0.000000 19.684135 -0.743058 156.383926 91.129311
[L_mid_tent01]
12 23.228750 24.509907 -223.761200 -18.217384 37.688221 -23.833279 226.294907
13 23.228750 24.509907 -223.761200 -17.020876 40.639122 -20.685469 226.294907
[R_mid_tent01]
12 23.228794 24.509907 226.238495 -158.803391 18.001837 -13.426157 228.744751
13 23.228794 24.509907 226.238495 -158.548950 20.450691 -11.997756 228.744751
[spine01]
12 -0.361383 -0.195265 0.000000 0.001815 0.001488 11.320962 0.410763
13 -0.361383 -0.195265 0.000000 0.001815 0.001488 11.320962 0.410763
[Bip01_Neck]
12 165.484543 71.581718 0.000119 175.896118 1.177290 24.871183 180.302734
13 165.484543 71.581718 0.000119 175.896118 1.177290 24.871180 180.302734
[L_humerus]
12 -13.983130 -135.272980 -120.471481 165.769836 16.003845 -108.013046 181.680161
13 -13.983130 -135.272980 -120.471481 165.187820 18.292549 -107.994080 181.680161
[R_humerus]
12 -13.983309 -135.273102 125.287651 -166.816681 -6.224649 -103.559349 184.909012
13 -13.983309 -135.273102 125.287651 -166.567993 -8.630765 -103.417015 184.909012
[weapon_bone]
12 235.964890 -300.705902 0.000000 0.000000 -89.951546 -128.212341 382.234833
13 235.964890 -300.705902 0.000000 0.000000 -89.951546 -128.212341 382.234833
[Bip01_Head]
12 201.313721 211.516785 15.929816 17.719145 5.989332 -73.268654 292.438568
13 201.313705 211.516785 15.929826 16.833168 5.611436 -72.786972 292.438568
[eye_left_bone]
12 -24.626970 125.451866 -64.772606 0.000000 -90.000000 -99.840431 143.318359
13 -24.626970 125.451866 -64.772606 0.000000 -90.000000 -99.840431 143.318359
[eye_right_bone]
12 -24.626970 125.451866 64.327362 0.000000 -89.965736 80.156380 143.117676
13 -24.626970 125.451866 64.327362 0.000000 -89.965736 80.156380 143.117676
[L_forearm]
12 322.776093 0.000000 -0.000119 0.000357 -0.002320 -107.506004 322.776093
13 322.776093 0.000000 -0.000119 0.000357 -0.002320 -107.506004 322.776093
[L_front_hand]
12 241.149185 -0.042021 -3.300071 -179.431961 -2.195943 -5.942918 241.171753
13 241.149185 -0.042021 -3.300071 -179.431961 -2.195943 -5.942917 241.171753
[L_weapon_bone]
12 156.183838 0.000000 0.000000 0.000014 0.000007 0.000001 156.183838
13 156.183838 0.000000 0.000000 0.000014 0.000007 0.000001 156.183838
[L_front_hand01_01]
12 86.095154 20.947098 -0.655860 0.139491 -0.584553 24.181786 88.609184
13 86.095154 20.947098 -0.655860 0.139491 -0.584553 24.181786 88.609184
[L_front_hand02_01]
12 86.935165 -11.437475 24.513514 119.190460 -21.905651 -12.119137 91.046425
13 86.935165 -11.437475 24.513514 119.190460 -21.905653 -12.119133 91.046425
[L_front_hand03_01]
12 86.637497 -14.123976 -20.424902 -120.437630 20.554037 -14.327168 90.126129
13 86.637497 -14.123976 -20.424902 -120.437630 20.554029 -14.327168 90.126129
[L_front_hand01_02]
12 71.020905 -0.000179 0.000030 0.000334 -0.002323 -106.379684 71.020905
13 71.020905 -0.000179 0.000030 0.000334 -0.002323 -106.379684 71.020905
[L_front_hand02_02]
12 71.020927 -0.000119 0.000060 0.000334 -0.002323 -106.379684 71.020927
13 71.020927 -0.000119 0.000060 0.000334 -0.002323 -106.379684 71.020927
[L_front_hand03_02]
12 71.020905 -0.000060 0.000060 0.000334 -0.002323 -106.379684 71.020905
13 71.020905 -0.000060 0.000060 0.000334 -0.002323 -106.379684 71.020905
[R_forearm]
12 322.776428 -0.000060 0.000030 0.196737 0.083011 -114.368637 322.776428
13 322.776428 -0.000060 0.000030 0.196737 0.083011 -114.368637 322.776428
[R_front_hand]
12 238.847015 -0.006795 2.210259 -0.341870 1.692705 -0.151779 238.857239
13 238.847015 -0.006795 2.210259 -0.341870 1.692705 -0.151779 238.857239
[R_weapon_bone]
12 155.664093 0.002503 -0.000030 0.003487 0.001180 -90.988930 155.664078
13 155.664093 0.002503 -0.000030 0.003487 0.001180 -90.988930 155.664078
[R_front_hand01_01]
12 87.624611 14.231146 22.918642 -119.218056 -22.033409 12.303375 91.683487
13 87.624611 14.231146 22.918642 -119.218071 -22.033403 12.303374 91.683487
[R_front_hand02_01]
12 89.356956 14.367283 -19.491137 120.545532 20.947184 14.823009 92.579636
13 89.356956 14.367283 -19.491137 120.545532 20.947184 14.823009 92.579636
[R_front_hand03_01]
12 87.286232 -22.307278 -0.143439 -0.231628 -0.392922 -24.567768 90.091743
13 87.286232 -22.307278 -0.143439 -0.231628 -0.392922 -24.567768 90.091743
[R_front_hand01_02]
12 71.020905 0.000060 0.000119 0.002323 -0.000334 106.381714 71.020905
13 71.020905 0.000060 0.000119 0.002323 -0.000334 106.381706 71.020905
[R_front_hand02_02]
12 71.020844 -0.000030 -0.000119 0.002323 -0.000334 106.381714 71.020836
13 71.020844 -0.000030 -0.000119 0.002323 -0.000334 106.381706 71.020836
[R_front_hand03_02]
12 71.020905 0.000000 0.000030 0.002323 -0.000334 106.381714 71.020905
13 71.020905 0.000000 0.000030 0.002323 -0.000334 106.381706 71.020905
[null_rope01_connect]
12 328.732483 0.000000 -0.000238 96.928444 54.450161 36.191589 328.732483
13 328.732483 0.000000 -0.000238 93.977097 54.880379 28.992258 328.732483
[Rope1_Seg01]
12 -0.000014 0.000024 0.000056 32.746674 7.831563 64.945839 0.000063
13 -0.000015 0.000023 0.000061 17.786314 8.695452 70.131027 0.000067
[Rope1_Seg02]
12 139.999863 -0.000179 0.000000 1.487097 -1.323426 0.721509 139.999863
13 139.999863 -0.000179 0.000000 6.709907 -2.587663 -0.710020 139.999863
[Rope1_Seg03]
12 139.999924 0.000060 -0.000060 1.866201 -1.995994 1.161417 139.999924
13 139.999924 0.000060 -0.000060 8.334078 -3.971375 -0.610308 139.999924
[Rope1_Seg04]
12 139.999924 -0.000060 -0.000119 6.502052 -5.655743 1.614513 139.999924
13 139.999924 -0.000060 -0.000119 19.057669 -10.900403 -2.790480 139.999924
[Rope1_Seg05]
12 139.999832 0.000119 -0.000060 13.096336 -24.045042 6.854684 139.999832
13 139.999832 0.000119 -0.000060 21.476616 -28.625141 -0.524159 139.999832
[Rope1_Seg06]
12 139.999954 0.000119 -0.000060 -53.906540 68.306175 23.591604 139.999954
13 139.999954 0.000119 -0.000060 -48.873882 68.927437 24.901859 139.999954
[Rope1_Seg07]
12 139.999985 0.000060 0.000000 -7.621905 3.771818 16.342632 139.999985
13 139.999985 0.000060 0.000000 -10.984062 9.890054 31.646788 139.999985
[Rope1_Seg09]
12 121.602913 0.000119 -0.000089 -89.793175 -1.359789 0.847147 121.602913
13 121.602913 0.000119 -0.000089 -89.793175 -1.359789 0.847147 121.602913
[L_mid_hand01]
12 103.859421 1.038730 8.195221 106.855484 -31.239275 -9.461397 104.187431
13 103.859421 1.038730 8.195221 106.855484 -31.239275 -9.461397 104.187431
[L_mid_hand02]
12 105.572853 -4.139662 -10.864139 -142.331345 25.752670 -28.774628 106.211075
13 105.572853 -4.139662 -10.864139 -142.331345 25.752670 -28.774628 106.211075
[L_mid_hand03]
12 104.641464 17.579376 -3.913581 -16.122810 9.734291 34.223598 106.179977
13 104.641464 17.579376 -3.913581 -16.122810 9.734291 34.223598 106.179977
[null_rope02_connect]
12 328.732849 0.000179 -0.000119 -173.186081 -72.159554 58.471985 328.732849
13 328.732849 0.000179 -0.000119 -172.668457 -69.060265 59.747833 328.732849
[Rope2_Seg01]
12 -0.000122 -0.000097 -0.000153 87.860596 -38.913208 66.340553 0.000218
13 -0.000124 -0.000092 -0.000153 85.145782 -46.530518 70.031364 0.000217
[Rope2_Seg02]
12 139.999741 -0.000060 -0.000119 -0.038905 3.652082 -2.048242 139.999756
13 139.999741 -0.000060 -0.000119 -0.011240 3.430587 -3.239982 139.999756
[Rope2_Seg03]
12 140.000107 0.000030 0.000000 -0.041926 5.102898 -2.866897 140.000107
13 140.000107 0.000030 0.000000 0.144573 4.959007 -4.706117 140.000107
[Rope2_Seg04]
12 139.999802 0.000000 -0.000060 -0.044209 7.508216 -4.249777 139.999802
13 139.999802 0.000000 -0.000060 0.610530 7.564062 -7.308623 139.999802
[Rope2_Seg05]
12 139.999985 -0.000060 0.000119 0.559145 13.088557 -9.138775 139.999985
13 139.999985 -0.000060 0.000119 6.280352 12.486171 -19.742624 139.999985
[Rope2_Seg06]
12 139.999893 -0.000030 -0.000119 10.269982 22.603685 -20.344942 139.999893
13 139.999893 -0.000030 -0.000119 24.053782 13.001502 -25.617437 139.999893
[Rope2_Seg07]
12 139.999893 0.000060 -0.000060 -6.791256 8.915487 -1.745913 139.999893
13 139.999893 0.000060 -0.000060 -19.178276 13.300335 2.416252 139.999893
[Rope2_Seg09]
12 121.338966 0.000089 -0.000060 33.793236 -1.359788 -0.847141 121.338966
13 121.338966 0.000089 -0.000060 33.793236 -1.359788 -0.847141 121.338966
[R_mid_hand01]
12 104.680779 11.144459 -10.335981 -41.523792 25.424656 28.595957 105.778534
13 104.680779 11.144459 -10.335981 -41.523792 25.424656 28.595957 105.778534
[R_mid_hand02]
12 104.070427 2.443552 8.231699 72.847389 -32.746803 10.013901 104.424065
13 104.070427 2.443552 8.231699 72.847389 -32.746803 10.013901 104.424065
[R_mid_hand03]
12 106.028137 -11.221827 -5.996406 -167.901306 10.259192 -37.009720 106.788818
13 106.028137 -11.221827 -5.996406 -167.901306 10.259192 -37.009720 106.788818
[spine02]
12 129.756927 0.001550 0.000119 0.001147 -1.797838 -7.854275 129.756927
13 129.756927 0.001550 0.000119 0.001147 -1.797837 -7.854274 129.756927
[spine03]
12 79.115631 0.000000 -0.000119 1.459971 -2.848092 23.765965 79.115631
13 79.115631 0.000000 -0.000119 1.459971 -2.848092 23.765959 79.115631
[pelvis]
12 169.435242 0.051022 0.000000 -0.000005 0.000003 -4.322055 169.435257
13 169.435242 0.051022 0.000000 -0.000005 0.000003 -4.322055 169.435257
[null_rope03_connect]
12 -1.257226 -2.466202 137.391083 -122.795570 78.077469 132.455948 137.418976
13 -1.257226 -2.466202 137.391083 -108.721825 76.846214 146.305298 137.418976
[null_rope04_connect]
12 -1.259640 -2.480268 -137.844437 -122.795570 78.077469 132.455948 137.872513
13 -1.259640 -2.480268 -137.844437 -108.721825 76.846214 146.305298 137.872513
[Rope3_Seg01]
12 0.000004 -0.000056 0.000056 -132.706223 -25.661610 103.655373 0.000079
13 0.000008 -0.000055 0.000061 -127.142181 -27.382713 90.687820 0.000083
[Rope3_Seg02]
12 139.999924 -0.000119 0.000060 0.831009 -5.324577 1.651423 139.999924
13 139.999924 -0.000119 0.000060 -0.032585 -6.520201 0.340369 139.999924
[Rope3_Seg03]
12 139.999924 -0.000119 0.000119 1.192493 -6.658541 2.186649 139.999924
13 139.999924 -0.000119 0.000119 0.418950 -8.633553 0.451141 139.999924
[Rope3_Seg04]
12 139.999924 0.000119 0.000000 1.915168 -9.502090 2.840733 139.999924
13 139.999924 0.000119 0.000000 1.461423 -12.175775 0.537203 139.999924
[Rope3_Seg05]
12 139.999924 -0.000238 0.000060 4.657928 -17.076143 3.657536 139.999924
13 139.999924 -0.000238 0.000060 5.543443 -20.938173 0.260575 139.999924
[Rope3_Seg06]
12 139.999893 -0.000119 -0.000060 2.030597 -3.196791 4.478896 139.999893
13 139.999893 -0.000119 -0.000060 3.558563 -7.717692 2.479514 139.999893
[Rope3_Seg07]
12 139.999771 0.000060 -0.000119 -1.265507 15.883851 3.701115 139.999771
13 139.999771 0.000060 -0.000119 -1.672783 9.741542 2.490332 139.999771
[Rope3_Seg08]
12 139.999985 -0.000060 0.000000 0.843451 12.274806 3.754098 139.999985
13 139.999985 -0.000060 0.000000 -0.612574 9.301244 2.577013 139.999985
[Rope3_Seg09]
12 90.185997 -0.000179 -0.000060 89.793228 -1.359877 -0.847183 90.185997
13 90.185997 -0.000179 -0.000060 89.793228 -1.359877 -0.847183 90.185997
[R_rear_hand01]
12 103.366196 -6.073594 -10.757982 -161.551193 16.666374 -30.088671 104.101845
13 103.366196 -6.073594 -10.757982 -161.551193 16.666374 -30.088671 104.101845
[R_rear_hand02]
12 100.509819 12.039542 -7.992327 -34.280552 19.289745 28.875523 101.543350
13 100.509819 12.039542 -7.992327 -34.280552 19.289745 28.875523 101.543350
[R_rear_hand03]
12 101.539970 5.215704 5.435467 83.366440 -30.933914 7.284830 101.819031
13 101.539970 5.215704 5.435467 83.366440 -30.933914 7.284830 101.819031
[Rope4_Seg01]
12 -0.000008 0.000105 0.000000 52.189331 -44.437401 76.104553 0.000105
13 -0.000015 0.000104 0.000000 63.442375 -41.193489 57.404469 0.000105
[Rope4_Seg02]
12 139.999985 0.000060 0.000119 -1.357331 19.755381 -3.131777 139.999985
13 139.999985 0.000060 0.000119 -2.104717 17.379618 0.720793 139.999985
[Rope4_Seg03]
12 139.999924 0.000000 -0.000238 2.178346 20.100027 -2.687036 139.999924
13 139.999924 0.000000 -0.000238 0.470689 21.946602 1.821003 139.999924
[Rope4_Seg04]
12 139.999985 0.000000 0.000119 6.592576 21.513321 -0.943066 139.999985
13 139.999985 0.000000 0.000119 4.768047 25.317139 4.076795 139.999985
[Rope4_Seg05]
12 139.999802 -0.000060 -0.000119 4.699855 6.818779 -2.430793 139.999802
13 139.999802 -0.000060 -0.000119 5.012981 12.828227 0.734945 139.999802
[Rope4_Seg06]
12 139.999924 0.000000 0.000060 1.247905 -3.172153 -3.001949 139.999924
13 139.999924 0.000000 0.000060 2.689651 1.215666 -2.181390 139.999924
[Rope4_Seg07]
12 139.999802 0.000000 0.000000 -0.642180 -14.387336 -4.699272 139.999802
13 139.999802 0.000000 0.000000 1.069045 -7.820708 -4.797193 139.999802
[Rope4_Seg08]
12 139.999924 0.000000 0.000119 -1.230572 -10.616895 -4.658921 139.999924
13 139.999924 0.000000 0.000119 -0.608071 -9.072385 -5.394679 139.999924
[Rope4_Seg09]
12 90.185791 0.000060 0.000060 -135.617828 2.228885 0.850567 90.185791
13 90.185791 0.000060 0.000060 -135.617828 2.228885 0.850567 90.185791
[L_rear_hand01]
12 101.696655 -8.392275 -7.654577 -34.454281 -18.946800 151.655121 102.329041
13 101.696655 -8.392275 -7.654577 -34.454281 -18.946800 151.655121 102.329041
[L_rear_hand02]
12 102.726799 -1.568258 5.773216 83.407906 30.330435 172.796509 102.900848
13 102.726799 -1.568258 5.773216 83.407906 30.330435 172.796509 102.900848
[L_rear_hand03]
12 104.552910 9.721220 -10.420293 -161.379868 -16.473232 -150.512238 105.519653
13 104.552910 9.721220 -10.420293 -161.379868 -16.473232 -150.512238 105.519653
